<?xml version="1.0" standalone="no"?>
<!DOCTYPE svg PUBLIC "-//W3C//DTD SVG 20010904//EN"
 "http://www.w3.org/TR/2001/REC-SVG-20010904/DTD/svg10.dtd">
<svg version="1.0" xmlns="http://www.w3.org/2000/svg"
 width="343.000000pt" height="343.000000pt" viewBox="0 0 343.000000 343.000000"
 preserveAspectRatio="xMidYMid meet">
<metadata>
Created by potrace 1.14, written by Peter Selinger 2001-2017
</metadata>
<g transform="translate(0.000000,343.000000) scale(0.100000,-0.100000)"
fill="#000000" stroke="none">
<path d="M1558 3234 c-163 -53 -381 -161 -508 -251 -119 -86 -277 -242 -357
-356 -135 -192 -242 -456 -282 -697 -24 -150 -23 -109 -22 -1007 l1 -722 128
74 127 74 6 843 c5 823 6 845 27 940 62 272 172 471 371 669 163 161 374 296
582 369 l66 24 64 -23 c101 -37 270 -124 367 -190 319 -219 498 -480 588 -861
16 -68 18 -152 21 -922 l4 -847 127 -73 c69 -40 130 -74 134 -76 12 -5 10
1455 -2 1583 -57 605 -370 1074 -890 1335 -117 58 -240 108 -347 138 l-71 20
-134 -44z"/>
<path d="M1571 3040 c-367 -152 -616 -448 -721 -854 -49 -191 -51 -243 -48
-1023 l3 -722 85 49 85 49 6 788 c5 681 8 798 22 863 55 245 157 432 323 590
113 107 312 230 373 230 32 0 177 -78 258 -139 251 -187 403 -451 442 -771 7
-52 11 -366 11 -821 l0 -736 87 -51 88 -51 3 747 c2 701 1 754 -17 862 -63
372 -252 685 -523 868 -118 80 -300 162 -356 162 -15 0 -69 -18 -121 -40z"/>
<path d="M1627 2796 c-226 -93 -402 -295 -477 -546 -48 -162 -50 -199 -50
-936 0 -382 3 -694 8 -694 4 0 31 14 60 30 l52 30 0 673 c0 372 5 710 10 757
31 270 152 472 360 602 98 61 101 61 169 26 183 -94 325 -280 383 -498 21 -83
22 -98 25 -822 l4 -737 53 -31 c30 -16 56 -30 60 -30 4 0 5 332 3 738 -3 724
-3 738 -25 821 -53 201 -120 321 -246 446 -78 78 -106 98 -196 143 -58 29
-112 52 -120 52 -8 0 -41 -11 -73 -24z"/>
<path d="M1686 2214 l-66 -56 0 -84 0 -84 -79 0 -79 0 -56 -64 c-31 -35 -56
-67 -56 -70 0 -3 61 -6 135 -6 l135 0 0 -355 c0 -195 3 -355 6 -355 3 0 37 26
74 57 l69 58 0 298 1 297 83 0 83 0 56 68 57 67 -140 3 -139 3 0 139 c0 79 -4
140 -9 140 -5 0 -39 -25 -75 -56z"/>
</g>
</svg>
