<?xml version="1.0" encoding="utf-8"?>
<!-- Generator: Adobe Illustrator 23.1.0, SVG Export Plug-In . SVG Version: 6.00 Build 0)  -->
<svg version="1.1" id="Layer_1" xmlns="http://www.w3.org/2000/svg" xmlns:xlink="http://www.w3.org/1999/xlink" x="0px" y="0px"
	 viewBox="0 0 239.93 108.8" style="enable-background:new 0 0 239.93 108.8;" xml:space="preserve">
<style type="text/css">
	.st0{fill:#7D7150;}
</style>
<g>
	<g>
		<g>
			<path class="st0" d="M132.75,22.02c1.15,0,2.28,0.24,3.25,0.5l1.57-0.5v4.38l-0.55,0.13l-1.07-1.49
				c-0.97-1.36-1.81-1.86-3.14-1.86c-2.59,0-4.06,2.12-4.06,6.84c0,4.4,1.81,6.26,4.38,6.26c1.44,0,2.78-0.26,4.45-1.55l0.55,0.84
				c-1.1,1.55-3.12,2.38-5.37,2.38c-4.22,0-7.23-2.65-7.23-7.94C125.52,24.69,128.56,22.02,132.75,22.02z"/>
			<path class="st0" d="M148.02,30.22c0-1.49-0.84-2.12-1.89-2.12c-0.86,0-1.81,0.37-2.46,0.97v7.36l1.73,0.5l-0.34,0.76h-5.32
				v-0.73l1.15-0.45V22.54l-1.39-1.31v-0.29l3.69-1.1h0.47v8.25h0.11c0.94-1.47,2.44-2.12,3.77-2.12c1.6,0,3.25,0.84,3.25,3.67v6.78
				l1.7,0.5l-0.34,0.76h-5.32v-0.73l1.18-0.45V30.22z"/>
			<path class="st0" d="M160.16,27.52v-0.29l3.49-1.23h0.47v9.69l1.36,1.08v0.37l-3.77,0.79l-0.26-1.86h-0.1
				c-0.84,1.36-2.28,1.89-3.56,1.89c-1.75,0-3.46-0.97-3.46-3.77v-5.11l-1.18-1.55v-0.29l3.49-1.23h0.47v7.73
				c0,1.76,0.76,2.44,1.86,2.44c0.86,0,1.62-0.34,2.38-1.07v-6.03L160.16,27.52z"/>
			<path class="st0" d="M173.17,36.9l-0.34,0.79h-5.89v-0.73l1.15-0.45v-7.41l-1.18-1.55v-0.29l3.48-1.26h0.45l-0.08,2.7h0.11
				c0.6-1.42,1.73-2.72,3.3-2.72c1.31,0,2.07,0.76,2.07,1.89c0,1.1-0.76,1.73-1.65,1.73c-1.02,0-1.62-0.71-1.62-1.7
				c-0.79,0.32-1.47,1.02-2.1,1.91v6.6L173.17,36.9z"/>
			<path class="st0" d="M183.17,27.13c-1.99,0-3.28,1.6-3.28,4.51c0,2.7,1.29,4.4,3.51,4.4c1.18,0,1.99-0.39,2.93-1.05l0.39,0.6
				c-1.05,1.78-2.52,2.36-4.45,2.36c-2.88,0-5.08-2.1-5.08-5.87c0-3.9,2.7-6.08,5.89-6.08c1.96,0,3.51,0.76,3.51,2.41
				c0,0.99-0.68,1.68-1.6,1.68c-0.86,0-1.57-0.58-1.57-1.52c0-0.55,0.26-1.02,0.63-1.31C183.85,27.2,183.62,27.13,183.17,27.13z"/>
			<path class="st0" d="M196.26,30.22c0-1.49-0.84-2.12-1.89-2.12c-0.86,0-1.81,0.37-2.46,0.97v7.36l1.73,0.5l-0.34,0.76h-5.32
				v-0.73l1.15-0.45V22.54l-1.39-1.31v-0.29l3.69-1.1h0.47v8.25h0.11c0.94-1.47,2.44-2.12,3.77-2.12c1.6,0,3.25,0.84,3.25,3.67v6.78
				l1.7,0.5l-0.34,0.76h-5.32v-0.73l1.18-0.45V30.22z"/>
			<path class="st0" d="M212.36,37.95c-3.35,0-5.58-2.04-5.58-5.97S209,26,212.36,26c3.35,0,5.58,2.04,5.58,5.97
				S215.71,37.95,212.36,37.95z M212.36,36.79c1.94,0,2.59-1.86,2.59-4.82s-0.65-4.82-2.59-4.82c-1.94,0-2.59,1.86-2.59,4.82
				S210.42,36.79,212.36,36.79z"/>
			<path class="st0" d="M226.13,36.9l-0.34,0.79h-5.92v-0.73l1.18-0.45v-8.96h-1.86V26.6l1.86-0.42v-0.81
				c0-3.98,2.54-5.68,5.27-5.68c1.68,0,3.09,0.63,3.09,2.15c0,0.94-0.65,1.6-1.52,1.6s-1.52-0.55-1.52-1.42
				c0-0.58,0.24-1.07,0.58-1.34c-0.26-0.08-0.45-0.11-0.71-0.11c-1.65,0-2.41,1.49-2.41,3.88v1.81h3.2l-0.21,1.28h-2.99v8.85
				L226.13,36.9z"/>
			<path class="st0" d="M132.75,46.09c1.15,0,2.28,0.24,3.25,0.5l1.57-0.5v4.38l-0.55,0.13l-1.07-1.49
				c-0.97-1.36-1.81-1.86-3.14-1.86c-2.59,0-4.06,2.12-4.06,6.84c0,4.4,1.81,6.26,4.38,6.26c1.44,0,2.78-0.26,4.45-1.55l0.55,0.84
				c-1.1,1.55-3.12,2.38-5.37,2.38c-4.22,0-7.23-2.64-7.23-7.94C125.52,48.76,128.56,46.09,132.75,46.09z"/>
			<path class="st0" d="M145.13,62.02c-3.35,0-5.58-2.04-5.58-5.97c0-3.93,2.23-5.97,5.58-5.97c3.35,0,5.58,2.04,5.58,5.97
				C150.72,59.98,148.49,62.02,145.13,62.02z M145.13,60.87c1.94,0,2.59-1.86,2.59-4.82c0-2.96-0.65-4.82-2.59-4.82
				c-1.94,0-2.59,1.86-2.59,4.82C142.54,59.01,143.2,60.87,145.13,60.87z"/>
			<path class="st0" d="M165.48,61l-0.34,0.76h-5.32v-0.73l1.15-0.47V54.4c0-1.68-0.97-2.12-1.91-2.12c-0.97,0-1.86,0.5-2.41,1v7.23
				l1.73,0.5l-0.34,0.76h-5.32v-0.73l1.15-0.45v-7.44l-1.18-1.55V51.3l3.49-1.23h0.45l-0.08,2.25h0.11c0.99-1.62,2.49-2.25,3.9-2.25
				c1.68,0,3.2,1.1,3.2,3.77v6.65L165.48,61z"/>
			<path class="st0" d="M172.96,60.97l-0.34,0.79h-5.92v-0.73l1.18-0.45v-8.96h-1.86v-0.94l1.86-0.42v-0.81
				c0-3.98,2.54-5.68,5.27-5.68c1.68,0,3.09,0.63,3.09,2.15c0,0.95-0.65,1.6-1.52,1.6c-0.86,0-1.52-0.55-1.52-1.42
				c0-0.58,0.24-1.07,0.58-1.33c-0.26-0.08-0.45-0.11-0.71-0.11c-1.65,0-2.41,1.5-2.41,3.88v1.81h3.2l-0.21,1.28h-2.99v8.85
				L172.96,60.97z"/>
			<path class="st0" d="M180.74,60.11c1.26,0,2.07-0.31,3.09-1.05l0.39,0.6c-0.89,1.62-2.33,2.36-4.46,2.36
				c-2.85,0-5.16-1.94-5.16-5.84c0-3.93,2.57-6.1,5.58-6.1c2.46,0,4.19,1.47,4.19,4.16c0,0.42-0.03,0.92-0.13,1.42h-6.94
				C177.3,58.4,178.54,60.11,180.74,60.11z M177.36,54.5h4.35c0.03-0.21,0.05-0.55,0.05-0.81c0-1.5-0.52-2.46-1.83-2.46
				C178.69,51.23,177.67,52.27,177.36,54.5z"/>
			<path class="st0" d="M186.83,58.04c1.21,2.36,2.23,2.93,3.64,2.93c1.13,0,1.91-0.39,1.91-1.55c0-0.92-0.55-1.44-1.81-1.86
				l-1.57-0.52c-1.68-0.55-2.67-1.57-2.67-3.51c0-2.36,1.68-3.46,3.93-3.46c0.68,0,1.7,0.21,2.25,0.5l1.34-0.47l0.16,3.38
				l-0.58,0.18c-1.1-1.83-2.04-2.46-3.25-2.46c-1.02,0-1.68,0.58-1.68,1.44c0,0.84,0.45,1.39,1.57,1.78l1.68,0.55
				c1.88,0.63,2.93,1.62,2.93,3.62c0,2.41-1.78,3.43-4.32,3.43c-1.05,0-2.02-0.29-2.7-0.6l-1.23,0.6l-0.26-3.8L186.83,58.04z"/>
			<path class="st0" d="M197.33,58.04c1.21,2.36,2.23,2.93,3.64,2.93c1.13,0,1.91-0.39,1.91-1.55c0-0.92-0.55-1.44-1.81-1.86
				l-1.57-0.52c-1.68-0.55-2.67-1.57-2.67-3.51c0-2.36,1.68-3.46,3.93-3.46c0.68,0,1.7,0.21,2.25,0.5l1.34-0.47l0.16,3.38
				l-0.58,0.18c-1.1-1.83-2.04-2.46-3.25-2.46c-1.02,0-1.68,0.58-1.68,1.44c0,0.84,0.45,1.39,1.57,1.78l1.68,0.55
				c1.88,0.63,2.93,1.62,2.93,3.62c0,2.41-1.78,3.43-4.32,3.43c-1.05,0-2.02-0.29-2.7-0.6l-1.23,0.6l-0.26-3.8L197.33,58.04z"/>
			<path class="st0" d="M212.83,61l-0.34,0.76h-5.29v-0.73l1.15-0.45v-7.44l-1.18-1.55V51.3l3.49-1.23h0.47V60.5L212.83,61z
				 M209.71,44.78c1.05,0,1.83,0.81,1.83,1.84s-0.79,1.83-1.83,1.83c-1.02,0-1.83-0.81-1.83-1.83S208.69,44.78,209.71,44.78z"/>
			<path class="st0" d="M227.07,61l-0.34,0.76h-5.32v-0.73l1.15-0.47V54.4c0-1.68-0.97-2.12-1.91-2.12c-0.97,0-1.86,0.5-2.41,1v7.23
				l1.73,0.5l-0.34,0.76h-5.32v-0.73l1.15-0.45v-7.44l-1.18-1.55V51.3l3.49-1.23h0.45l-0.08,2.25h0.11c0.99-1.62,2.49-2.25,3.9-2.25
				c1.68,0,3.2,1.1,3.2,3.77v6.65L227.07,61z"/>
			<path class="st0" d="M235.63,59.77c2.31,0,3.82,1.18,3.82,3.49c0,3.09-2.99,4.3-6.37,4.3c-3.01,0-5.24-0.79-5.24-2.88
				c0-1.49,1.07-2.25,2.8-2.65v-0.1c-1.36-0.16-2.1-0.99-2.1-2.2s0.86-2.02,2.31-2.31c-1.39-0.52-2.31-1.55-2.31-3.27
				c0-2.23,1.6-4.06,4.71-4.06c1.39,0,2.78,0.29,4.14,0.94c-0.1-0.18-0.16-0.39-0.16-0.63c0-0.81,0.58-1.31,1.34-1.31
				c0.84,0,1.34,0.58,1.34,1.41c0,0.89-0.55,1.44-1.55,1.44c-0.63,0-1.23-0.18-2.07-0.52v0.24c0.84,0.42,1.52,1.36,1.52,2.52
				c0,2.54-2.38,3.64-4.56,3.64c-0.55,0-1.05-0.05-1.49-0.18c-0.63,0.29-1.1,0.63-1.1,1.26c0,0.6,0.34,0.89,1.05,0.89H235.63z
				 M230.39,64.32c0,1.49,0.99,2.12,2.85,2.12c2.18,0,3.83-0.65,3.83-2.46c0-1.13-0.63-1.68-2.1-1.68h-3.41
				C230.81,62.7,230.39,63.38,230.39,64.32z M233.19,51.28c-1.49,0-1.81,1.02-1.81,2.72c0,1.68,0.32,2.73,1.81,2.73
				c1.52,0,1.83-1.05,1.83-2.73C235.03,52.3,234.71,51.28,233.19,51.28z"/>
			<path class="st0" d="M134.41,81.06h-5.58l-1.23,3.33l2.07,0.55l-0.13,0.89h-4.74l-0.18-0.81l1.28-0.65l5.24-13.94h2.38
				l5.21,13.94l1.31,0.65l-0.18,0.81h-5.97l-0.16-0.91l1.94-0.42L134.41,81.06z M129.3,79.78h4.64l-1.42-3.96
				c-0.68-1.91-0.76-3.19-0.76-3.19h-0.11c0,0-0.21,1.41-0.89,3.22L129.3,79.78z"/>
			<path class="st0" d="M153.91,85.07l-0.34,0.76h-5.32V85.1l1.15-0.47v-6.16c0-1.68-0.97-2.12-1.91-2.12
				c-0.97,0-1.86,0.5-2.41,0.99v7.23l1.73,0.5l-0.34,0.76h-5.32V85.1l1.15-0.45v-7.44l-1.18-1.55v-0.29l3.49-1.23h0.45l-0.08,2.26
				h0.11c0.99-1.62,2.49-2.26,3.9-2.26c1.68,0,3.2,1.1,3.2,3.77v6.65L153.91,85.07z"/>
			<path class="st0" d="M162.47,83.84c2.31,0,3.82,1.18,3.82,3.48c0,3.09-2.99,4.3-6.37,4.3c-3.01,0-5.24-0.79-5.24-2.88
				c0-1.49,1.07-2.26,2.8-2.65v-0.1c-1.36-0.16-2.1-1-2.1-2.2c0-1.2,0.86-2.02,2.31-2.3c-1.39-0.52-2.31-1.55-2.31-3.27
				c0-2.23,1.6-4.06,4.71-4.06c1.39,0,2.78,0.29,4.14,0.95c-0.1-0.18-0.16-0.39-0.16-0.63c0-0.81,0.58-1.31,1.34-1.31
				c0.84,0,1.34,0.58,1.34,1.41c0,0.89-0.55,1.44-1.55,1.44c-0.63,0-1.23-0.18-2.07-0.52v0.24c0.84,0.42,1.52,1.36,1.52,2.52
				c0,2.54-2.38,3.64-4.56,3.64c-0.55,0-1.05-0.05-1.49-0.18c-0.63,0.29-1.1,0.63-1.1,1.26c0,0.6,0.34,0.89,1.05,0.89H162.47z
				 M157.23,88.4c0,1.49,0.99,2.12,2.85,2.12c2.18,0,3.83-0.65,3.83-2.46c0-1.13-0.63-1.68-2.1-1.68h-3.41
				C157.65,86.77,157.23,87.45,157.23,88.4z M160.03,75.35c-1.49,0-1.81,1.02-1.81,2.73c0,1.68,0.32,2.72,1.81,2.72
				c1.52,0,1.83-1.05,1.83-2.72C161.86,76.37,161.55,75.35,160.03,75.35z"/>
			<path class="st0" d="M173.01,85.07l-0.34,0.76h-5.32V85.1l1.15-0.45V70.69l-1.39-1.31v-0.29l3.69-1.1h0.47v16.58L173.01,85.07z"
				/>
			<path class="st0" d="M180.08,85.07l-0.34,0.76h-5.29V85.1l1.15-0.45v-7.44l-1.18-1.55v-0.29l3.49-1.23h0.47v10.43L180.08,85.07z
				 M176.96,68.85c1.05,0,1.83,0.81,1.83,1.83c0,1.02-0.79,1.84-1.83,1.84c-1.02,0-1.83-0.81-1.83-1.84
				C175.13,69.66,175.94,68.85,176.96,68.85z"/>
			<path class="st0" d="M187.46,75.27c-1.99,0-3.28,1.6-3.28,4.5c0,2.7,1.29,4.4,3.51,4.4c1.18,0,1.99-0.39,2.93-1.05l0.39,0.6
				c-1.05,1.78-2.52,2.36-4.45,2.36c-2.88,0-5.08-2.1-5.08-5.87c0-3.9,2.7-6.08,5.89-6.08c1.96,0,3.51,0.76,3.51,2.41
				c0,1-0.68,1.68-1.6,1.68c-0.86,0-1.57-0.58-1.57-1.52c0-0.55,0.26-1.02,0.63-1.31C188.14,75.35,187.91,75.27,187.46,75.27z"/>
			<path class="st0" d="M201.55,83.36c0,1.21,0.42,1.49,1.81,1.31l0.08,0.58c-0.6,0.55-1.36,0.84-2.46,0.84
				c-1.02,0-1.86-0.5-2.07-1.62h-0.08c-0.52,1.07-1.73,1.62-3.06,1.62c-1.89,0-3.28-1.02-3.28-3.17c0-2.31,1.81-3.43,4.72-3.43
				c0.52,0,1.13,0.08,1.57,0.18v-1.23c0-1.55-1-2.31-2.49-2.31c-1.02,0-2.02,0.26-3.12,0.97l-0.34-0.73
				c1.13-1.47,2.72-2.23,4.71-2.23c2.04,0,4.01,1.07,4.01,3.77V83.36z M198.12,80.64c-1.81,0-2.88,0.44-2.88,2.02
				c0,1.1,0.65,1.73,1.65,1.73c0.76,0,1.34-0.18,1.89-0.76v-2.99H198.12z"/>
			<path class="st0" d="M217.26,85.07l-0.34,0.76h-5.32V85.1l1.15-0.47v-6.16c0-1.68-0.97-2.12-1.91-2.12
				c-0.97,0-1.86,0.5-2.41,0.99v7.23l1.73,0.5l-0.34,0.76h-5.32V85.1l1.15-0.45v-7.44l-1.18-1.55v-0.29l3.48-1.23h0.45l-0.08,2.26
				h0.11c1-1.62,2.49-2.26,3.9-2.26c1.68,0,3.2,1.1,3.2,3.77v6.65L217.26,85.07z"/>
			<path class="st0" d="M219.18,82.11c1.21,2.36,2.23,2.93,3.64,2.93c1.13,0,1.91-0.39,1.91-1.55c0-0.91-0.55-1.44-1.81-1.86
				l-1.57-0.52c-1.68-0.55-2.67-1.57-2.67-3.51c0-2.36,1.68-3.46,3.93-3.46c0.68,0,1.7,0.21,2.25,0.5l1.34-0.47l0.16,3.38
				l-0.58,0.18c-1.1-1.83-2.04-2.46-3.25-2.46c-1.02,0-1.68,0.58-1.68,1.44c0,0.84,0.45,1.39,1.57,1.78l1.68,0.55
				c1.88,0.63,2.93,1.62,2.93,3.61c0,2.41-1.78,3.43-4.32,3.43c-1.05,0-2.02-0.29-2.7-0.6l-1.23,0.6l-0.26-3.8L219.18,82.11z"/>
		</g>
	</g>
	<g>
		<g>
			<path class="st0" d="M131.14,103.24h-3.55l-0.78,2.12l1.32,0.35l-0.08,0.56h-3.02l-0.12-0.52l0.82-0.42l3.33-8.87h1.52l3.32,8.87
				l0.83,0.42l-0.12,0.52h-3.8l-0.1-0.58l1.23-0.27L131.14,103.24z M127.88,102.43h2.95l-0.9-2.52c-0.43-1.22-0.48-2.03-0.48-2.03
				h-0.07c0,0-0.13,0.9-0.57,2.05L127.88,102.43z"/>
			<path class="st0" d="M138.93,106.44c-2.13,0-3.55-1.3-3.55-3.8c0-2.5,1.42-3.8,3.55-3.8s3.55,1.3,3.55,3.8
				C142.48,105.14,141.06,106.44,138.93,106.44z M138.93,105.71c1.23,0,1.65-1.18,1.65-3.07c0-1.88-0.42-3.07-1.65-3.07
				s-1.65,1.18-1.65,3.07C137.27,104.53,137.69,105.71,138.93,105.71z"/>
			<path class="st0" d="M143.45,99.32l2.33-2.28h0.4v1.97h2.33l-0.12,0.82h-2.2v4.17c0,0.95,0.38,1.33,1.07,1.33
				c0.45,0,0.82-0.1,1.3-0.35l0.17,0.4c-0.53,0.69-1.25,1.07-2.33,1.07c-1.18,0-1.97-0.62-1.97-2.18v-4.43h-0.98V99.32z"/>
			<path class="st0" d="M153.39,105.22c0.8,0,1.32-0.2,1.97-0.67l0.25,0.38c-0.57,1.04-1.48,1.5-2.83,1.5
				c-1.82,0-3.28-1.23-3.28-3.72c0-2.5,1.63-3.88,3.55-3.88c1.57,0,2.67,0.93,2.67,2.65c0,0.27-0.02,0.59-0.08,0.9h-4.42
				C151.21,104.14,151.99,105.22,153.39,105.22z M151.24,101.66h2.77c0.02-0.13,0.03-0.35,0.03-0.52c0-0.95-0.33-1.57-1.17-1.57
				C152.09,99.57,151.44,100.24,151.24,101.66z"/>
			<path class="st0" d="M162.67,104.71c0,0.77,0.27,0.95,1.15,0.83l0.05,0.36c-0.38,0.35-0.87,0.53-1.57,0.53
				c-0.65,0-1.18-0.32-1.32-1.03h-0.05c-0.33,0.68-1.1,1.03-1.95,1.03c-1.2,0-2.08-0.65-2.08-2.02c0-1.47,1.15-2.18,3-2.18
				c0.33,0,0.72,0.05,1,0.11v-0.78c0-0.98-0.63-1.47-1.58-1.47c-0.65,0-1.29,0.17-1.99,0.62l-0.22-0.47c0.72-0.94,1.73-1.42,3-1.42
				c1.3,0,2.55,0.68,2.55,2.4V104.71z M160.49,102.97c-1.15,0-1.83,0.28-1.83,1.29c0,0.7,0.42,1.1,1.05,1.1
				c0.48,0,0.85-0.12,1.2-0.49v-1.9H160.49z"/>
			<path class="st0" d="M168.68,105.78l-0.22,0.5h-3.75v-0.46l0.73-0.28v-4.72l-0.75-0.98v-0.18l2.22-0.8h0.28l-0.05,1.72h0.07
				c0.38-0.9,1.1-1.74,2.1-1.74c0.83,0,1.32,0.49,1.32,1.2c0,0.7-0.48,1.1-1.05,1.1c-0.65,0-1.03-0.45-1.03-1.08
				c-0.5,0.2-0.93,0.65-1.33,1.22v4.2L168.68,105.78z"/>
			<path class="st0" d="M174.95,106.44c-2.13,0-3.55-1.3-3.55-3.8c0-2.5,1.42-3.8,3.55-3.8c2.13,0,3.55,1.3,3.55,3.8
				C178.5,105.14,177.09,106.44,174.95,106.44z M174.95,105.71c1.24,0,1.65-1.18,1.65-3.07c0-1.88-0.42-3.07-1.65-3.07
				c-1.23,0-1.65,1.18-1.65,3.07C173.3,104.53,173.72,105.71,174.95,105.71z"/>
			<path class="st0" d="M185.58,104.71c0,0.77,0.27,0.95,1.15,0.83l0.05,0.36c-0.38,0.35-0.87,0.53-1.57,0.53
				c-0.65,0-1.18-0.32-1.32-1.03h-0.05c-0.33,0.68-1.1,1.03-1.95,1.03c-1.2,0-2.08-0.65-2.08-2.02c0-1.47,1.15-2.18,3-2.18
				c0.33,0,0.72,0.05,1,0.11v-0.78c0-0.98-0.63-1.47-1.58-1.47c-0.65,0-1.28,0.17-1.99,0.62l-0.22-0.47c0.72-0.94,1.73-1.42,3-1.42
				c1.3,0,2.55,0.68,2.55,2.4V104.71z M183.39,102.97c-1.15,0-1.83,0.28-1.83,1.29c0,0.7,0.42,1.1,1.05,1.1
				c0.48,0,0.85-0.12,1.2-0.49v-1.9H183.39z"/>
			<path class="st0" d="M192.98,105.36l1.25,0.38l-0.13,0.53h-3.2l-0.13-0.53l1.17-0.38v-7.97l-1.17-0.38l0.13-0.53h2.92l3.72,5.27
				c0.65,0.92,1.1,2.02,1.1,2.02h0.07c0,0-0.08-1.18-0.08-2.37v-4l-1.25-0.38l0.12-0.53h3.18l0.13,0.53l-1.17,0.38v8.89h-1.05
				l-4.47-6.15c-0.65-0.91-1.17-2.02-1.17-2.02h-0.07c0,0,0.1,1.2,0.1,2.44V105.36z"/>
			<path class="st0" d="M205.96,98.47c0.5-0.87,0.83-1.22,0.83-1.22v-0.07c0,0-0.32,0.05-1.3,0.05h-1.72l-1.48,1.97l-0.37-0.07
				l0.23-2.67h6.85l0.08,0.23l-4.47,7.53c-0.55,0.9-0.88,1.22-0.88,1.22v0.07c0,0,0.35-0.05,1.35-0.05h2.28l1.57-2.13l0.4,0.12
				l-0.48,2.82h-7.24l-0.1-0.2L205.96,98.47z"/>
		</g>
	</g>
	<g>
		<g>
			<path class="st0" d="M42.62,21.65c-4.47,0-8.1,3.64-8.1,8.1c0,3.73,2.85,6.65,6.49,6.65v0c0.42,0,0.83-0.05,1.22-0.14
				c0.05-0.01,0.1-0.03,0.15-0.05c0.14-0.04,0.28-0.08,0.41-0.13c0.01,0,0.02-0.01,0.02-0.01c0.17-0.07,0.34-0.14,0.5-0.23
				c0.01-0.01,0.03-0.02,0.04-0.02c0.15-0.08,0.3-0.17,0.45-0.28c0,0,0.01-0.01,0.01-0.01c0.15-0.11,0.29-0.22,0.42-0.35
				c0.04-0.04,0.08-0.09,0.12-0.13c0.09-0.09,0.18-0.18,0.26-0.28c0.08-0.1,0.15-0.21,0.21-0.31c0.03-0.05,0.07-0.1,0.11-0.15
				c0,0,0,0,0,0c0,0,0,0,0,0c0.08-0.13,0.14-0.26,0.2-0.4c0.06-0.14,0.12-0.29,0.16-0.44c0.01-0.04,0.03-0.07,0.04-0.11
				c0.03-0.12,0.05-0.24,0.07-0.36c0.01-0.04,0.02-0.09,0.03-0.13c0.02-0.11,0.02-0.23,0.02-0.35c0-0.05,0.01-0.11,0.01-0.16
				c0,0,0-0.01,0-0.01c0-0.14-0.01-0.28-0.03-0.41c0-0.03,0-0.05-0.01-0.08c-0.02-0.16-0.05-0.31-0.09-0.47c0-0.01,0-0.02-0.01-0.03
				c-0.09-0.33-0.22-0.66-0.39-0.97c-0.75-1.34-2.45-1.92-3.97-1.36c-1.02,0.38-1.71,1.21-1.89,2.2c-0.18-0.29-0.3-0.75-0.31-1.15
				c-0.04-2.11,1.82-3.96,3.83-3.96c2.82,0,5.11,2.29,5.11,5.11v16.51H31.22c-2.82,0-5.11-2.29-5.11-5.11
				c0-2.01,1.85-3.87,3.96-3.83c0.41,0.01,0.86,0.13,1.15,0.31c-0.99,0.19-1.82,0.87-2.2,1.89c-0.56,1.52,0.02,3.22,1.36,3.97
				c0.31,0.17,0.64,0.3,0.97,0.39c0.01,0,0.02,0,0.03,0.01c0.16,0.04,0.31,0.07,0.47,0.09c0.03,0,0.05,0,0.08,0.01
				c0.14,0.01,0.28,0.03,0.41,0.03c0,0,0.01,0,0.01,0c0.05,0,0.11-0.01,0.16-0.01c0.12-0.01,0.23-0.01,0.35-0.02
				c0.04-0.01,0.09-0.02,0.13-0.03c0.12-0.02,0.24-0.04,0.36-0.07c0.04-0.01,0.07-0.03,0.11-0.04c0.15-0.05,0.29-0.1,0.44-0.16
				c0.14-0.06,0.27-0.12,0.4-0.2c0,0,0,0,0,0c0,0,0,0,0,0c0.05-0.03,0.1-0.07,0.15-0.11c0.11-0.07,0.21-0.14,0.31-0.21
				c0.1-0.08,0.19-0.17,0.28-0.26c0.04-0.04,0.09-0.08,0.13-0.12c0.13-0.13,0.24-0.27,0.35-0.42c0,0,0.01-0.01,0.01-0.01
				c0.1-0.14,0.19-0.29,0.28-0.45c0.01-0.01,0.02-0.03,0.02-0.04c0.09-0.16,0.16-0.33,0.23-0.5c0-0.01,0.01-0.02,0.01-0.02
				c0.05-0.13,0.09-0.27,0.13-0.41c0.01-0.05,0.03-0.1,0.05-0.15c0.09-0.39,0.14-0.8,0.14-1.22h0c0-3.64-2.92-6.49-6.65-6.49
				c-4.47,0-8.1,3.64-8.1,8.1c0,5.28,4.29,9.57,9.57,9.57h16.51h4.46v-4.46V31.22C52.2,25.94,47.9,21.65,42.62,21.65z"/>
			<path class="st0" d="M67.86,29.02c-1.52-0.56-3.22,0.02-3.97,1.36c-0.17,0.31-0.3,0.64-0.39,0.97c0,0.01,0,0.02-0.01,0.03
				c-0.04,0.16-0.07,0.31-0.09,0.47c0,0.03,0,0.05-0.01,0.08c-0.01,0.14-0.03,0.28-0.03,0.41c0,0,0,0.01,0,0.01
				c0,0.05,0.01,0.11,0.01,0.16c0.01,0.12,0.01,0.23,0.02,0.35c0.01,0.04,0.02,0.09,0.03,0.13c0.02,0.12,0.04,0.24,0.07,0.36
				c0.01,0.04,0.03,0.07,0.04,0.11c0.05,0.15,0.1,0.29,0.16,0.44c0.06,0.14,0.12,0.27,0.2,0.4c0,0,0,0,0,0c0,0,0,0,0,0
				c0.03,0.05,0.07,0.1,0.11,0.15c0.07,0.11,0.14,0.21,0.21,0.31c0.08,0.1,0.17,0.19,0.26,0.28c0.04,0.04,0.08,0.09,0.12,0.13
				c0.13,0.13,0.27,0.24,0.42,0.35c0,0,0.01,0.01,0.01,0.01c0.14,0.1,0.29,0.19,0.45,0.28c0.01,0.01,0.03,0.02,0.04,0.02
				c0.16,0.09,0.33,0.16,0.5,0.23c0.01,0,0.02,0.01,0.02,0.01c0.13,0.05,0.27,0.09,0.41,0.13c0.05,0.01,0.1,0.03,0.15,0.05
				c0.39,0.09,0.8,0.14,1.22,0.14v0c3.64,0,6.49-2.92,6.49-6.65c0-4.47-3.64-8.1-8.1-8.1c-5.28,0-9.57,4.29-9.57,9.57v16.51v4.46
				h4.46h16.51c5.28,0,9.57-4.29,9.57-9.57c0-4.47-3.64-8.1-8.1-8.1c-3.73,0-6.65,2.85-6.65,6.49h0c0,0.42,0.05,0.83,0.14,1.22
				c0.01,0.05,0.03,0.1,0.05,0.15c0.04,0.14,0.08,0.28,0.13,0.41c0,0.01,0.01,0.02,0.01,0.02c0.07,0.17,0.14,0.34,0.23,0.5
				c0.01,0.01,0.02,0.03,0.02,0.04c0.08,0.15,0.17,0.3,0.28,0.45c0,0,0.01,0.01,0.01,0.01c0.11,0.15,0.22,0.29,0.35,0.42
				c0.04,0.04,0.09,0.08,0.13,0.12c0.09,0.09,0.18,0.18,0.28,0.26c0.1,0.08,0.21,0.15,0.31,0.21c0.05,0.03,0.1,0.07,0.15,0.11
				c0,0,0,0,0,0c0,0,0,0,0,0c0.13,0.08,0.26,0.14,0.4,0.2c0.14,0.06,0.29,0.12,0.44,0.16c0.04,0.01,0.07,0.03,0.11,0.04
				c0.12,0.03,0.24,0.05,0.36,0.07c0.04,0.01,0.09,0.02,0.13,0.03c0.11,0.02,0.23,0.02,0.35,0.02c0.05,0,0.11,0.01,0.16,0.01
				c0,0,0.01,0,0.01,0c0.14,0,0.28-0.01,0.41-0.03c0.03,0,0.05,0,0.08-0.01c0.16-0.02,0.31-0.05,0.47-0.09c0.01,0,0.02,0,0.03-0.01
				c0.33-0.09,0.66-0.22,0.97-0.39c1.34-0.75,1.92-2.45,1.36-3.97c-0.38-1.02-1.21-1.71-2.2-1.89c0.29-0.18,0.75-0.3,1.15-0.31
				c2.11-0.04,3.96,1.82,3.96,3.83c0,2.82-2.29,5.11-5.11,5.11H61.12V31.22c0-2.82,2.29-5.11,5.11-5.11c2.01,0,3.87,1.85,3.83,3.96
				c-0.01,0.41-0.13,0.86-0.31,1.15C69.57,30.23,68.88,29.4,67.86,29.02z"/>
			<path class="st0" d="M54.43,0C24.42,0,0,24.42,0,54.43c0,27.74,20.87,50.7,47.73,54.01c1.47,0.18,2.96,0.3,4.46,0.36v-4.47V61.12
				v-4.46h-4.46H31.22c-5.28,0-9.57,4.29-9.57,9.57c0,4.47,3.64,8.1,8.1,8.1c3.73,0,6.65-2.85,6.65-6.49h0
				c0-0.42-0.05-0.83-0.14-1.22c-0.01-0.05-0.03-0.1-0.05-0.15c-0.04-0.14-0.08-0.28-0.13-0.41c0-0.01-0.01-0.02-0.01-0.02
				c-0.07-0.17-0.14-0.34-0.23-0.5c-0.01-0.01-0.02-0.03-0.02-0.04c-0.08-0.15-0.17-0.3-0.28-0.45c0,0-0.01-0.01-0.01-0.01
				c-0.11-0.15-0.22-0.29-0.35-0.42c-0.04-0.04-0.09-0.08-0.13-0.12c-0.09-0.09-0.18-0.18-0.28-0.26c-0.1-0.08-0.21-0.15-0.31-0.21
				c-0.05-0.03-0.1-0.07-0.15-0.11c0,0,0,0,0,0c0,0,0,0,0,0c-0.13-0.08-0.26-0.14-0.4-0.2c-0.14-0.06-0.29-0.12-0.44-0.16
				c-0.04-0.01-0.07-0.03-0.11-0.04c-0.12-0.03-0.24-0.05-0.36-0.07c-0.04-0.01-0.09-0.02-0.13-0.03c-0.11-0.02-0.23-0.02-0.35-0.02
				c-0.05,0-0.11-0.01-0.16-0.01c0,0-0.01,0-0.01,0c-0.14,0-0.28,0.01-0.41,0.03c-0.03,0-0.05,0-0.08,0.01
				c-0.16,0.02-0.31,0.05-0.47,0.09c-0.01,0-0.02,0-0.03,0.01c-0.33,0.09-0.66,0.22-0.97,0.39c-1.34,0.75-1.92,2.45-1.36,3.97
				c0.38,1.02,1.21,1.71,2.2,1.89c-0.29,0.18-0.75,0.3-1.15,0.31c-2.11,0.04-3.96-1.82-3.96-3.83c0-2.82,2.29-5.11,5.11-5.11h16.51
				v42.82c-24.4-3.28-43.27-24.23-43.27-49.51c0-27.55,22.41-49.96,49.96-49.96s49.96,22.41,49.96,49.96
				c0,25.28-18.87,46.23-43.27,49.51V61.12h16.51c2.82,0,5.11,2.29,5.11,5.11c0,2.01-1.85,3.87-3.96,3.83
				c-0.41-0.01-0.86-0.13-1.15-0.31c0.99-0.19,1.82-0.87,2.2-1.89c0.56-1.52-0.02-3.22-1.36-3.97c-0.31-0.17-0.64-0.3-0.97-0.39
				c-0.01,0-0.02,0-0.03-0.01c-0.16-0.04-0.31-0.07-0.47-0.09c-0.03,0-0.05,0-0.08-0.01c-0.14-0.01-0.28-0.03-0.41-0.03
				c0,0-0.01,0-0.01,0c-0.05,0-0.11,0.01-0.16,0.01c-0.12,0.01-0.23,0.01-0.35,0.02c-0.04,0.01-0.09,0.02-0.13,0.03
				c-0.12,0.02-0.24,0.04-0.36,0.07c-0.04,0.01-0.07,0.03-0.11,0.04c-0.15,0.05-0.29,0.1-0.44,0.16c-0.14,0.06-0.27,0.12-0.4,0.2
				c0,0,0,0,0,0c0,0,0,0,0,0c-0.05,0.03-0.1,0.07-0.15,0.11c-0.11,0.07-0.21,0.14-0.31,0.21c-0.1,0.08-0.19,0.17-0.28,0.26
				c-0.04,0.04-0.09,0.08-0.13,0.12c-0.13,0.13-0.24,0.27-0.35,0.42c0,0-0.01,0.01-0.01,0.01c-0.1,0.14-0.19,0.29-0.28,0.45
				c-0.01,0.01-0.02,0.03-0.02,0.04c-0.09,0.16-0.16,0.33-0.23,0.5c0,0.01-0.01,0.02-0.01,0.02c-0.05,0.13-0.09,0.27-0.13,0.41
				c-0.01,0.05-0.03,0.1-0.05,0.15c-0.09,0.39-0.14,0.8-0.14,1.22h0c0,3.64,2.92,6.49,6.65,6.49c4.47,0,8.1-3.64,8.1-8.1
				c0-5.28-4.29-9.57-9.57-9.57H61.12h-4.46v4.46v43.22v4.47c1.5-0.06,2.99-0.18,4.46-0.36c26.86-3.31,47.73-26.27,47.73-54.01
				C108.85,24.42,84.44,0,54.43,0z"/>
		</g>
	</g>
</g>
</svg>
